<?xml version="1.0" encoding="UTF-8"?>
<svg version="1.1" xmlns="http://www.w3.org/2000/svg" width="465" height="402">
<path d="M0 0 C5.29063285 2.05746833 6.49934356 6.13761248 9 11 C9 7.37 9 3.74 9 0 C13.14532883 2.90033913 14.93746538 5.23274192 16.75 9.9375 C16.99186035 10.56374268 17.2337207 11.18998535 17.48291016 11.83520508 C20.0999811 18.84665981 22.19672888 26.03104975 24.375 33.1875 C31.38760979 56.61170649 31.38760979 56.61170649 43 78 C43.70640625 77.566875 44.4128125 77.13375 45.140625 76.6875 C55.76273056 70.92273919 67.3965388 69.7611811 79.15234375 72.8203125 C81.72916316 73.98456266 83.76492651 75.27014203 86 77 C86.84691406 77.65484375 87.69382812 78.3096875 88.56640625 78.984375 C102.99690809 91.1137387 107.42742027 105.75364201 112 123.42773438 C114.96910571 135.27864477 114.96910571 135.27864477 122 145 C125.9860456 140.65271901 129.61443153 136.20869249 133 131.375 C138.90246102 123.17273171 146.81933864 116.14166701 157 114 C168.99969345 112.98633898 180.40557755 112.72116866 191 119 C191.92683594 119.50917969 192.85367188 120.01835937 193.80859375 120.54296875 C194.53175781 121.02378906 195.25492188 121.50460937 196 122 C196 122.66 196 123.32 196 124 C196.60070312 124.268125 197.20140625 124.53625 197.8203125 124.8125 C207.22979972 129.93881562 212.24792706 143.04053351 215.921875 152.43359375 C216.97539079 155.16799925 216.97539079 155.16799925 219 158 C224.37655383 157.38553671 227.2415941 155.20772829 230.58984375 151.00390625 C233.69908514 146.71019195 236.43506083 142.29163219 238.9855957 137.65209961 C245.64743779 125.5709973 253.72641499 118.29211651 267.30078125 114.328125 C280.59771189 112.71171086 294.32265668 112.27033508 305.33203125 120.80859375 C312.26663771 127.23312407 317.57631731 135.30546699 323 143 C326.12790542 142.39530133 326.12790542 142.39530133 328.4921875 140.34765625 C334.11731913 131.05188789 337.0407666 120.74121418 340.0546875 110.37109375 C344.13706301 96.35268858 349.99188691 83.82114563 362.84765625 75.97265625 C374.02020647 70.92371795 385.91223861 72.02228317 397.1953125 76.02734375 C402.60303199 78.02406723 402.60303199 78.02406723 407.9375 76.625 C419.74871861 67.6679062 421.4378019 50.65100028 423.9375 37.125 C429.44635834 8.37025157 429.44635834 8.37025157 437 0 C437.66 0 438.32 0 439 0 C438.84853516 0.7520874 438.69707031 1.5041748 438.54101562 2.27905273 C437.85968516 5.66500311 437.17982297 9.05124664 436.5 12.4375 C436.14228516 14.21350586 436.14228516 14.21350586 435.77734375 16.02539062 C435.55175781 17.15009766 435.32617188 18.27480469 435.09375 19.43359375 C434.88427734 20.47572021 434.67480469 21.51784668 434.45898438 22.59155273 C433.9687994 24.75508816 433.9687994 24.75508816 434 26 C434.45439453 24.42412109 434.45439453 24.42412109 434.91796875 22.81640625 C439.83718743 6.16994464 439.83718743 6.16994464 444 1 C445.485 0.505 445.485 0.505 447 0 C446.81824219 0.86238281 446.63648438 1.72476563 446.44921875 2.61328125 C443.72269167 15.85441533 441.5793564 29.14836743 439.92675781 42.56616211 C434.55466735 85.83453413 434.55466735 85.83453413 421.9296875 98.515625 C414.7762753 104.01824977 406.79926304 105.02090897 398 104 C393.00562896 102.75978706 388.58108846 100.29054423 384 98 C383.34 98 382.68 98 382 98 C378.06920699 107.77901945 375.03621182 117.42022361 372.625 127.6875 C369.02064892 142.4839026 365.17579547 157.51335049 356 170 C355.34 170 354.68 170 354 170 C354 170.66 354 171.32 354 172 C353.34 172 352.68 172 352 172 C352 172.66 352 173.32 352 174 C350.09375 175.62109375 350.09375 175.62109375 347.5 177.4375 C346.6646875 178.03433594 345.829375 178.63117188 344.96875 179.24609375 C337.852482 183.45030997 331.72407299 184.50239584 323.5 184.4375 C322.60152344 184.45748047 321.70304687 184.47746094 320.77734375 184.49804688 C313.68123053 184.49288231 308.46486592 182.92242116 303.00390625 178.31640625 C302.52824219 177.73761719 302.05257813 177.15882813 301.5625 176.5625 C300.99917969 175.87929688 300.43585938 175.19609375 299.85546875 174.4921875 C298.43350716 172.58226856 297.07295389 170.66508975 295.73828125 168.6953125 C295.34632568 168.1170874 294.95437012 167.5388623 294.55053711 166.94311523 C293.42186498 165.25749088 292.31587151 163.556748 291.2109375 161.85546875 C288.96066363 158.94919631 287.41036081 157.36091685 284 156 C279.08430302 157.34229364 276.57091156 161.91818346 274.05664062 166.06152344 C271.80207319 170.19767535 270.00864036 174.56117079 268.125 178.875 C262.00879473 192.74178433 254.86166518 204.44692745 240.546875 211.1484375 C229.82351756 214.73385456 215.44170988 214.53987386 205 210 C188.71291308 201.11613441 179.47374519 185.02168118 174.07739258 167.86108398 C172.62544326 163.32353959 170.81739163 159.85284325 168 156 C164.266788 156.40244724 164.266788 156.40244724 161.4453125 158.71484375 C161.00960937 159.44832031 160.57390625 160.18179688 160.125 160.9375 C159.62355469 161.74445313 159.12210938 162.55140625 158.60546875 163.3828125 C158.07566406 164.24648438 157.54585937 165.11015625 157 166 C149.64067072 177.19401305 149.64067072 177.19401305 145 180 C144.40832031 180.36867188 143.81664062 180.73734375 143.20703125 181.1171875 C133.79882741 185.94617708 120.90085087 185.39502847 110.734375 183.33984375 C98.39997772 178.85989757 89.59954715 168.41580612 84.17578125 156.80859375 C80.01742438 146.87550873 77.41937972 136.78132556 75 126.3125 C72.11870179 111.36330951 72.11870179 111.36330951 64 99 C60.69598284 100.07380558 57.55005871 101.20169782 54.375 102.625 C47.89073847 105.05970356 40.34323748 105.02708904 33.75 102.9375 C23.68623674 98.35359127 18.8211011 89.98372951 15 80 C6.9393995 57.18960347 4.44520481 32.93915717 1.41723633 9.07006836 C1.00470036 6.03458571 0.51941966 3.01886138 0 0 Z M10 13 C11 16 11 16 11 16 Z " fill="#FC9E12" transform="translate(9,166)"/>
<path d="M0 0 C13.04873534 11.13276957 23.3172753 27.25386787 27.46484375 44.03125 C27.66722656 44.80726562 27.86960937 45.58328125 28.078125 46.3828125 C31.37038348 61.2091738 31.0273231 79.47329153 23.46484375 93.03125 C22.45550781 93.05703125 21.44617188 93.0828125 20.40625 93.109375 C-9.96750707 94.17430309 -39.36095992 101.37736985 -66.53515625 115.03125 C-67.23060547 115.37687988 -67.92605469 115.72250977 -68.64257812 116.07861328 C-80.66094666 122.10222883 -91.6523535 129.35140249 -102.17236328 137.70654297 C-104.84900735 139.81835191 -107.40369269 141.66123469 -110.53515625 143.03125 C-110.53515625 143.69125 -110.53515625 144.35125 -110.53515625 145.03125 C-112.51515625 146.02125 -112.51515625 146.02125 -114.53515625 147.03125 C-114.53515625 145.05125 -114.53515625 143.07125 -114.53515625 141.03125 C-117.17515625 143.01125 -119.81515625 144.99125 -122.53515625 147.03125 C-120.97836992 137.48857056 -118.62604473 128.22634137 -116.09765625 118.90625 C-115.88062042 118.1042215 -115.66358459 117.30219299 -115.43997192 116.4758606 C-108.89604923 92.41175477 -101.7074853 68.40011159 -90.53515625 46.03125 C-90.15037109 45.24153809 -89.76558594 44.45182617 -89.36914062 43.63818359 C-78.88846597 22.21798314 -65.18035384 -1.54409528 -41.53515625 -9.96875 C-25.49647766 -12.93299423 -12.84472325 -9.97494687 0 0 Z " fill="#FE9E10" transform="translate(423.53515625,18.96875)"/>
<path d="M0 0 C40.85672038 35.22131067 53.27657657 97.29273481 66 147 C65.01 147.33 64.02 147.66 63 148 C61.17578125 146.78515625 61.17578125 146.78515625 59.3125 145.0625 C58.68988281 144.49660156 58.06726563 143.93070313 57.42578125 143.34765625 C56.95527344 142.90292969 56.48476562 142.45820313 56 142 C56.33 144.31 56.66 146.62 57 149 C56.113125 148.21625 55.22625 147.4325 54.3125 146.625 C22.49958985 119.59977534 -19.07641292 98.62299607 -61.484375 96.65625 C-62.61222412 96.59655029 -63.74007324 96.53685059 -64.90209961 96.4753418 C-67.14108493 96.36843341 -69.38202606 96.2958589 -71.62329102 96.26098633 C-79.07416786 95.90768431 -79.07416786 95.90768431 -81.54443359 93.48583984 C-82.71624067 91.34013329 -83.38682845 89.36624468 -84 87 C-84.21591797 86.21052979 -84.43183594 85.42105957 -84.65429688 84.60766602 C-89.88858696 62.19558918 -84.35770868 39.64268638 -72.75 20.25 C-64.57677381 8.15362525 -53.403981 -3.98317899 -38.9375 -8.0625 C-24.79567251 -10.79782716 -11.62856501 -8.75731439 0 0 Z " fill="#FD9E10" transform="translate(99,17)"/>
<path d="M0 0 C1.67293936 0.30027117 3.33985384 0.63557767 5 1 C7.058752 1.07231015 7.058752 1.07231015 9.25 0.5 C12.2574892 -0.04681622 14.9497082 -0.20335279 18 0 C18.66 0.66 19.32 1.32 20 2 C20.66 1.34 21.32 0.68 22 0 C24.33203125 0.01953125 24.33203125 0.01953125 27 1 C28.77797915 2.87360156 30.2054133 4.60256125 31.6875 6.6875 C32.32171875 7.54577393 32.32171875 7.54577393 32.96875 8.42138672 C34.32793576 10.27022015 35.66516698 12.1335245 37 14 C37.93334378 15.2905454 38.86693725 16.58091026 39.80078125 17.87109375 C49 30.63658722 49 30.63658722 49 34 C24.84039141 34.57144935 24.84039141 34.57144935 14.8203125 30.8046875 C12.11339955 29.71719846 12.11339955 29.71719846 10.046875 30.8046875 C9.37140625 31.19914062 8.6959375 31.59359375 8 32 C-2.29138154 34.09447715 -12.5437797 34.2473219 -23 34 C-22.44888966 30.1346086 -21.42791612 27.78092016 -19.0859375 24.671875 C-18.48910156 23.87136719 -17.89226562 23.07085937 -17.27734375 22.24609375 C-16.33568359 21.01052734 -16.33568359 21.01052734 -15.375 19.75 C-14.46814453 18.53763672 -14.46814453 18.53763672 -13.54296875 17.30078125 C-2.24544271 2.24544271 -2.24544271 2.24544271 0 0 Z " fill="#FC9E10" transform="translate(220,192)"/>
<path d="M0 0 C-2.51988199 1.67992133 -4.69156985 2.74263713 -7.4375 3.9375 C-39.10063179 19.7460214 -54.13566534 64.31974759 -64.81201172 95.43408203 C-67.61589462 103.85034048 -69.83756371 112.40118707 -72 121 C-73.19114817 125.69209391 -74.40426173 130.37803042 -75.625 135.0625 C-76.04120605 136.7326416 -76.04120605 136.7326416 -76.46582031 138.43652344 C-78.86143131 147.63532866 -82.213674 151.75920366 -90 157 C-88.51079141 147.45511579 -86.08821957 138.18525332 -83.5625 128.875 C-83.34546417 128.0729715 -83.12842834 127.27094299 -82.90481567 126.4446106 C-76.36089298 102.38050477 -69.17232905 78.36886159 -58 56 C-57.61521484 55.21028809 -57.23042969 54.42057617 -56.83398438 53.60693359 C-46.76682177 33.03186108 -33.90860447 10.93402507 -12.2578125 1.1015625 C-7.85687684 -0.38652366 -4.59033731 -0.55400623 0 0 Z " fill="#130E0B" transform="translate(391,9)"/>
<path d="M0 0 C0.78117187 0.01804687 1.56234375 0.03609375 2.3671875 0.0546875 C2.94726562 0.07789063 3.52734375 0.10109375 4.125 0.125 C1.54068813 1.84787458 -0.89127452 3.11884989 -3.6875 4.4375 C-8.01180812 6.55862048 -11.26862318 8.96942028 -14.875 12.125 C-15.535 12.125 -16.195 12.125 -16.875 12.125 C-16.875 12.785 -16.875 13.445 -16.875 14.125 C-17.99870999 15.24870999 -19.12527674 16.3696367 -20.26171875 17.48046875 C-36.38933385 33.92048317 -43.02872882 55.30209275 -43.27539062 77.95703125 C-43.17552582 85.13554847 -41.40108072 91.35668728 -38.96875 98.0625 C-37.875 101.125 -37.875 101.125 -37.875 103.125 C-40.515 103.125 -43.155 103.125 -45.875 103.125 C-53.98267135 88.53119158 -54.01925599 69.48897202 -49.98046875 53.5234375 C-43.00723553 32.08628942 -30.7086928 13.48036199 -10.875 2.125 C-7.11511537 0.61914 -4.04242749 -0.1224978 0 0 Z " fill="#100C0A" transform="translate(64.875,8.875)"/>
<path d="M0 0 C3.84746193 1.47084398 5.13567307 3.35617101 7.0625 6.9375 C7.54847656 7.81277344 8.03445312 8.68804687 8.53515625 9.58984375 C12.43473453 18.66806198 13.77969078 28.24936503 15.13348389 37.96243286 C18.7353341 71.41631427 18.7353341 71.41631427 36.23828125 98.77734375 C36.92277344 99.16019531 37.60726562 99.54304688 38.3125 99.9375 C39.00988281 100.33839844 39.70726562 100.73929687 40.42578125 101.15234375 C41.20501953 101.57193359 41.20501953 101.57193359 42 102 C41.67 102.66 41.34 103.32 41 104 C33.93285567 103.40984181 29.17159797 101.57386261 24.09375 96.55859375 C5.56111205 73.91143356 4.94182918 36.85398367 1.41723633 9.07006836 C1.00470036 6.03458571 0.51941966 3.01886138 0 0 Z " fill="#16100D" transform="translate(9,166)"/>
<path d="M0 0 C3.60828393 -0.33565432 5.45523699 -0.36470973 8.51367188 1.68286133 C16.46915234 9.09698791 18.40773578 20.59854654 20.5 30.8125 C22.78242452 41.33812872 25.26132899 51.28062909 30 61 C30.45890625 61.99386719 30.9178125 62.98773438 31.390625 64.01171875 C36.71953392 74.74273589 44.07956259 81.30364609 55 86 C56.33740919 86.65845188 57.67218082 87.32241721 59 88 C48.66131629 88.66701185 41.05369849 85.57151815 33.09765625 78.9765625 C19.43084653 66.098712 15.07958682 47.96515798 11 30.3125 C8.39470681 16.31821834 8.39470681 16.31821834 1.35546875 4.3984375 C0 3 0 3 0 0 Z " fill="#17100B" transform="translate(73,262)"/>
<path d="M0 0 C1.8871875 0.0309375 1.8871875 0.0309375 3.8125 0.0625 C1.8125 2.0625 1.8125 2.0625 -1.375 3.75 C-5.71119799 6.18404045 -8.90107111 9.3652675 -12.1875 13.0625 C-12.64125 13.56265625 -13.095 14.0628125 -13.5625 14.578125 C-19.11829525 21.45342162 -21.22062684 30.59306502 -23.58984375 38.9609375 C-30.66074081 63.86299828 -30.66074081 63.86299828 -40.1875 72.0625 C-44 72.375 -44 72.375 -47.1875 72.0625 C-45.81328789 69.17146886 -44.21078133 66.59742199 -42.4375 63.9375 C-37.34194732 55.52362399 -34.86097622 45.82049782 -32.1328125 36.43359375 C-28.00867303 22.27177597 -22.11044131 9.62600324 -8.94921875 1.9375 C-5.86488414 0.40559101 -3.38928706 -0.05556208 0 0 Z " fill="#150F0B" transform="translate(381.1875,239.9375)"/>
<path d="M0 0 C3.5904375 0.235126 4.80578672 0.79534164 7.32421875 3.44921875 C8.12627497 4.51806632 8.91326163 5.59833323 9.6875 6.6875 C10.1103125 7.25968262 10.533125 7.83186523 10.96875 8.42138672 C12.32793576 10.27022015 13.66516698 12.1335245 15 14 C15.93334378 15.2905454 16.86693725 16.58091026 17.80078125 17.87109375 C27 30.63658722 27 30.63658722 27 34 C4.51895776 34.24554536 4.51895776 34.24554536 0.8515625 31.23828125 C-2.04037294 26.1804448 -1.75801007 21.10750642 -1.875 15.375 C-1.92140625 14.2303125 -1.9678125 13.085625 -2.015625 11.90625 C-2.27541479 3.41312219 -2.27541479 3.41312219 0 0 Z " fill="#FCA015" transform="translate(242,192)"/>
<path d="M0 0 C0.66 0 1.32 0 2 0 C1.86424561 0.65782471 1.72849121 1.31564941 1.58862305 1.9934082 C-1.82087142 18.57167095 -1.82087142 18.57167095 -4.6875 35.25 C-4.80730225 36.01940918 -4.92710449 36.78881836 -5.05053711 37.58154297 C-5.56234709 40.92992081 -6.03391981 44.27460299 -6.44921875 47.63671875 C-7.79458868 58.06642142 -10.98048599 70.46697131 -19.66015625 77.30859375 C-23.49319611 79.74320588 -26.51491628 80.43756914 -31 80 C-30 77 -30 77 -27.3125 75.0625 C-15.74706672 65.54453577 -14.57678027 46.23089976 -11.94140625 32.51953125 C-7.36739604 8.72454794 -7.36739604 8.72454794 0 0 Z " fill="#151210" transform="translate(446,166)"/>
<path d="M0 0 C3.99377357 -0.47544923 5.68879335 -0.19917226 9.125 2 C14.41555073 6.97449186 16.1303272 13.37971231 18.1875 20.125 C22.68666201 34.55459779 32.01602717 47.22140206 45 55 C47.65314077 56.21335262 50.2103071 57.12176334 53 58 C53 58.33 53 58.66 53 59 C43.15264323 59.6154598 36.83088378 57.27320771 29.22265625 50.99609375 C18.18722431 41.08553888 11.46383709 28.98928257 7.16552734 14.94921875 C5.55050225 9.85145245 3.19268102 6.28731452 0 2 C0 1.34 0 0.68 0 0 Z " fill="#17100B" transform="translate(176,319)"/>
<path d="M0 0 C7.95183955 -0.37405885 15.2814912 0.74371198 23.0625 2.3125 C24.74182617 2.63250977 24.74182617 2.63250977 26.45507812 2.95898438 C32.10944542 4.06995977 37.52663033 5.37331895 42.95483398 7.30786133 C44.95774232 7.98569887 46.93970746 8.49007855 49 8.9609375 C53.53433536 10.05195594 57.72312526 11.78622757 62 13.625 C62.82886719 13.97981445 63.65773437 14.33462891 64.51171875 14.70019531 C76.16484886 19.74601849 87.21881003 25.33473565 98 32.0625 C98.77730469 32.54493164 99.55460937 33.02736328 100.35546875 33.52441406 C113.03068001 41.61276961 113.03068001 41.61276961 116.5625 47.6875 C117.03707278 50.19595613 116.68722605 51.58198241 116 54 C115.59040039 53.56719727 115.18080078 53.13439453 114.75878906 52.68847656 C110.40307499 48.19611263 105.83862135 44.38166633 100.75 40.75 C99.97060059 40.19280273 99.19120117 39.63560547 98.38818359 39.06152344 C68.86657407 18.30257435 35.65149093 6.03934576 0 1 C0 0.67 0 0.34 0 0 Z " fill="#1D1612" transform="translate(39,112)"/>
<path d="M0 0 C-2.93202816 2.93202816 -6.5182032 4.46105542 -10.17578125 6.3671875 C-15.17914945 9.25986787 -18.43323859 12.18273782 -21.4375 17.125 C-22.035625 18.094375 -22.63375 19.06375 -23.25 20.0625 C-24.34907646 21.90737834 -25.43456602 23.76049053 -26.5 25.625 C-30.91662024 33.30607867 -35.91908604 40.86975509 -44 45 C-47.3125 45.1875 -47.3125 45.1875 -50 45 C-48.43528652 41.15933963 -45.93965873 38.86966685 -43 36 C-39.96746933 32.52244386 -37.69760821 28.87251433 -35.45019531 24.87060547 C-28.16108428 11.90748806 -16.82470856 -2.3554592 0 0 Z " fill="#15100D" transform="translate(282,281)"/>
<path d="M0 0 C1.58238353 3.16476706 0.09154248 6.11681495 -0.76953125 9.39453125 C-3.17904402 19.0767335 -4.4824823 28.79514536 -5.6875 38.6875 C-6.00510736 41.22231155 -6.32525326 43.75679167 -6.64595032 46.29121399 C-6.84201891 47.8480331 -7.03584813 49.40513661 -7.22697449 50.96257019 C-7.72482393 54.9940831 -8.29957162 58.99862077 -9 63 C-9.33 63 -9.66 63 -10 63 C-10 56.07 -10 49.14 -10 42 C-10.99 42.495 -10.99 42.495 -12 43 C-12.40729228 45.32156597 -12.74438677 47.6568787 -13 50 C-13.99 50 -14.98 50 -16 50 C-15.88597936 47.72858891 -15.75841495 45.45785448 -15.625 43.1875 C-15.55539062 41.92292969 -15.48578125 40.65835938 -15.4140625 39.35546875 C-15 36 -15 36 -13 33 C-12.50667409 30.69876293 -12.07791172 28.38341387 -11.6875 26.0625 C-10.04579397 17.07022988 -7.06414086 8.67702204 -2 1 C-1.34 0.67 -0.68 0.34 0 0 Z " fill="#F8A423" transform="translate(455,166)"/>
<path d="M0 0 C0.79921875 0.00902344 1.5984375 0.01804687 2.421875 0.02734375 C3.02515625 0.03894531 3.6284375 0.05054688 4.25 0.0625 C2.25 2.0625 2.25 2.0625 -0.875 2.8125 C-11.89501649 5.7282127 -19.0768568 16.62499818 -25.37695312 25.35546875 C-30.35443911 32.14006748 -30.35443911 32.14006748 -33.75 34.0625 C-36.5 34.25 -36.5 34.25 -38.75 34.0625 C-38.22354068 29.76689716 -36.84205969 27.52723324 -34.0625 24.25 C-31.4707351 21.14542601 -28.9749359 18.04115691 -26.625 14.75 C-20.31394319 6.32397777 -10.73304521 -0.1578389 0 0 Z " fill="#1D150E" transform="translate(170.75,279.9375)"/>
<path d="M0 0 C1.32 0 2.64 0 4 0 C4.588187 5.49250681 2.82321179 8.38129165 -0.4375 12.5625 C-1.35408364 13.78554569 -2.26941853 15.00952807 -3.18359375 16.234375 C-3.6513623 16.85376953 -4.11913086 17.47316406 -4.60107422 18.11132812 C-6.82621452 21.1154617 -8.90788676 24.21495581 -11 27.3125 C-14.76138434 32.88069217 -14.76138434 32.88069217 -17 34 C-18.99960012 34.039992 -21.00047242 34.04346799 -23 34 C-22.44888966 30.1346086 -21.42791612 27.78092016 -19.0859375 24.671875 C-18.48910156 23.87136719 -17.89226562 23.07085937 -17.27734375 22.24609375 C-16.33568359 21.01052734 -16.33568359 21.01052734 -15.375 19.75 C-14.46814453 18.53763672 -14.46814453 18.53763672 -13.54296875 17.30078125 C-2.24544271 2.24544271 -2.24544271 2.24544271 0 0 Z " fill="#17120F" transform="translate(220,192)"/>
<path d="M0 0 C6.45227514 -0.10455075 10.35964909 1.21194822 15.0234375 5.69921875 C18.08564209 9.26372172 20.57884781 13.13834277 23.04296875 17.1328125 C26.33084857 21.94978612 29.96227117 25.1407485 35 28 C35.66 28.66 36.32 29.32 37 30 C30.62705144 30.45521061 26.26986826 29.74438008 21 26 C17.34527198 22.66485582 14.50316702 18.77587049 11.73828125 14.6953125 C11.34632568 14.1170874 10.95437012 13.5388623 10.55053711 12.94311523 C9.42186498 11.25749088 8.31587151 9.556748 7.2109375 7.85546875 C4.98784969 4.98430764 3.12561382 3.73827997 0 2 C0 1.34 0 0.68 0 0 Z " fill="#1A120E" transform="translate(293,320)"/>
<path d="M0 0 C2.375 0.3125 2.375 0.3125 5 1 C7.22853305 4.34279957 7.26887974 5.55907184 7.34375 9.47265625 C7.37339844 10.53677734 7.40304688 11.60089844 7.43359375 12.69726562 C7.47794164 14.94465994 7.5222122 17.19205578 7.56640625 19.43945312 C7.59605469 20.50228516 7.62570313 21.56511719 7.65625 22.66015625 C7.67494141 23.63605713 7.69363281 24.61195801 7.71289062 25.61743164 C7.77357847 28.18519894 7.77357847 28.18519894 10 30 C11.31747324 30.69748583 12.64914193 31.36959957 14 32 C12.41705218 32.05437607 10.83355744 32.09296271 9.25 32.125 C7.92742187 32.15980469 7.92742187 32.15980469 6.578125 32.1953125 C3.85093574 31.98870725 2.28684592 31.47305841 0 30 C-1.3463268 27.30734639 -1.12962636 25.19885751 -1.1328125 22.1875 C-1.13410156 21.02992188 -1.13539063 19.87234375 -1.13671875 18.6796875 C-1.13285156 17.46539062 -1.12898437 16.25109375 -1.125 15 C-1.12886719 13.78570312 -1.13273438 12.57140625 -1.13671875 11.3203125 C-1.13542969 10.16273438 -1.13414062 9.00515625 -1.1328125 7.8125 C-1.13168457 6.74644531 -1.13055664 5.68039063 -1.12939453 4.58203125 C-1 2 -1 2 0 0 Z " fill="#211509" transform="translate(234,192)"/>
<path d="M0 0 C-2.58431187 1.72287458 -5.01627452 2.99384989 -7.8125 4.3125 C-12.13680812 6.43362048 -15.39362318 8.84442028 -19 12 C-19.66 12 -20.32 12 -21 12 C-21 12.66 -21 13.32 -21 14 C-23.52892721 16.73397536 -25.89595133 18.93063422 -29 21 C-30.66666667 21 -32.33333333 21 -34 21 C-35.35278906 21.62624593 -36.69024928 22.2881185 -38 23 C-28.89027306 9.56761832 -16.72832202 -0.66913288 0 0 Z " fill="#1B1411" transform="translate(69,9)"/>
<path d="M0 0 C7.95183955 -0.37405885 15.2814912 0.74371198 23.0625 2.3125 C24.74182617 2.63250977 24.74182617 2.63250977 26.45507812 2.95898438 C32.16407896 4.08069422 37.65752764 5.3782162 43.13208008 7.35888672 C45.26444511 8.1290112 45.26444511 8.1290112 48.625 8.8125 C55.31830086 10.38337673 61.66589636 13.37728521 68 16 C67.01 16.99 66.02 17.98 65 19 C60.71918601 17.63323409 56.63160256 16.0125644 52.5 14.25 C35.68702189 7.37844245 17.85783755 3.90757542 0 1 C0 0.67 0 0.34 0 0 Z " fill="#301F12" transform="translate(39,112)"/>
<path d="M0 0 C0.66 0 1.32 0 2 0 C1.56577309 12.53268706 0.17667432 24.65182238 -2 37 C-2.33 37 -2.66 37 -3 37 C-3 30.07 -3 23.14 -3 16 C-3.66 16.33 -4.32 16.66 -5 17 C-5.40729228 19.32156597 -5.74438677 21.6568787 -6 24 C-6.99 24 -7.98 24 -9 24 C-8.91297874 21.72844502 -8.80480478 19.45769257 -8.6875 17.1875 C-8.62949219 15.92292969 -8.57148438 14.65835938 -8.51171875 13.35546875 C-8 10 -8 10 -6.45703125 8.05078125 C-5.97621094 7.70402344 -5.49539063 7.35726562 -5 7 C-5 8.65 -5 10.3 -5 12 C-2.2289312 9.65408148 -1.47940716 7.85223799 -0.8125 4.3125 C-0.65394531 3.50425781 -0.49539063 2.69601563 -0.33203125 1.86328125 C-0.22246094 1.24839844 -0.11289062 0.63351563 0 0 Z " fill="#F6AD3F" transform="translate(448,192)"/>
<path d="M0 0 C2.06365451 3.09548177 2.70846051 5.28892843 3.5625 8.875 C3.81128906 9.90367188 4.06007813 10.93234375 4.31640625 11.9921875 C4.54199219 12.98476562 4.76757812 13.97734375 5 15 C5.18820312 15.77988281 5.37640625 16.55976562 5.5703125 17.36328125 C7.62408821 29.96599585 5.67964259 41.94259972 2 54 C1.67 54 1.34 54 1 54 C0.74825471 47.58049503 0.74825471 47.58049503 1.99609375 44.703125 C3.25149443 41.32282433 3.22982465 38.53509515 3.1875 34.9375 C3.18105469 33.72964844 3.17460937 32.52179688 3.16796875 31.27734375 C3.11465394 28.17942644 3.11465394 28.17942644 2.48828125 25.953125 C1.80373875 23.21495498 1.94513413 20.62780512 2 17.8125 C2.03747787 15.87536251 2.04688491 13.93693264 2 12 C1.67 11.67 1.34 11.34 1 11 C0.76636119 9.15108054 0.58696365 7.29511969 0.4375 5.4375 C0.35371094 4.42558594 0.26992188 3.41367187 0.18359375 2.37109375 C0.12300781 1.58863281 0.06242187 0.80617187 0 0 Z " fill="#F5AC43" transform="translate(447,54)"/>
<path d="M0 0 C9.10952456 -0.45358628 16.41619899 -0.08993627 25.09765625 3.02734375 C28.06131117 4.02054708 30.90967849 4.56377334 34 5 C34 5.66 34 6.32 34 7 C38.50066475 5.93204565 42.7494534 4.85961414 47 3 C47 3.99 47 4.98 47 6 C40.5222959 8.65751963 34.33403807 9.07227453 27.75 6.625 C25.70675615 5.76055068 23.6946477 4.85609241 21.6875 3.91015625 C18.42143072 2.80406011 15.69153008 2.76967553 12.25 2.8125 C10.52523438 2.82216797 10.52523438 2.82216797 8.765625 2.83203125 C6.09126386 2.68775631 6.09126386 2.68775631 5 4 C3.00041636 4.04080783 0.99954746 4.04254356 -1 4 C-0.01 3.34 0.98 2.68 2 2 C1.34 1.34 0.68 0.68 0 0 Z " fill="#E9A746" transform="translate(381,239)"/>
<path d="M0 0 C1.66363076 3.32726153 0.00831958 6.72734418 -0.875 10.1875 C-2.19899655 15.45152768 -3.3289322 20.61004057 -4 26 C-4.33 26 -4.66 26 -5 26 C-5 22.04 -5 18.08 -5 14 C-5.66 14 -6.32 14 -7 14 C-7.33 14.99 -7.66 15.98 -8 17 C-8.33 16.34 -8.66 15.68 -9 15 C-4.73049645 2.36524823 -4.73049645 2.36524823 0 0 Z " fill="#F4AB39" transform="translate(455,166)"/>
<path d="M0 0 C1 2 1 2 0.375 4.3125 C-1.26772417 7.52327905 -3.42852236 9.4928093 -6 12 C-6.70546682 13.31321696 -7.380764 14.64398783 -8 16 C-5.31236733 15.68860949 -2.62489631 15.37591843 0.0625 15.0625 C0.81466797 14.97548828 1.56683594 14.88847656 2.34179688 14.79882812 C6.90588219 14.26536361 11.45393534 13.67013702 16 13 C12.52541518 16.1864911 9.49057136 16.63306278 4.875 17.1875 C3.88391235 17.30810791 3.88391235 17.30810791 2.87280273 17.43115234 C-2.43251802 18.03574363 -7.66862515 18.22579941 -13 18 C-12.34 17.67 -11.68 17.34 -11 17 C-10.58621094 15.92685547 -10.58621094 15.92685547 -10.1640625 14.83203125 C-8.73926286 11.36565629 -6.65610514 8.62085865 -4.375 5.6875 C-3.74464844 4.86282227 -3.74464844 4.86282227 -3.1015625 4.02148438 C-2.07279961 2.67707832 -1.0370991 1.33798587 0 0 Z " fill="#E49224" transform="translate(216,208)"/>
<path d="M0 0 C2.97 0.495 2.97 0.495 6 1 C6 10.24 6 19.48 6 29 C5.34 29 4.68 29 4 29 C4 20.42 4 11.84 4 3 C2.68 3.33 1.36 3.66 0 4 C-0.70394612 5.31403276 -1.36345658 6.6520257 -2 8 C-4.4375 10.75 -4.4375 10.75 -7 13 C-7.99 13 -8.98 13 -10 13 C-9.65066406 12.55269531 -9.30132812 12.10539063 -8.94140625 11.64453125 C-6.31101372 8.14976044 -4.40792858 5.48721443 -4 1 C-3.01 1 -2.02 1 -1 1 C-0.67 0.67 -0.34 0.34 0 0 Z " fill="#DE9A37" transform="translate(228,192)"/>
<path d="M0 0 C2 3 2 3 1.69140625 5.41015625 C1.46324219 6.26480469 1.23507813 7.11945313 1 8 C-1.60247054 18.61883966 -1.72659889 29.20875697 0 40 C0.66 40 1.32 40 2 40 C2 42.64 2 45.28 2 48 C-5.88427267 32.7113669 -3.70946393 16.20682456 0 0 Z " fill="#D69023" transform="translate(24,60)"/>
<path d="M0 0 C24.04528961 -1.09818987 24.04528961 -1.09818987 33 5 C34.8046875 7.171875 34.8046875 7.171875 36 9 C34.02 8.34 32.04 7.68 30 7 C30 6.34 30 5.68 30 5 C28.68 5 27.36 5 26 5 C26 4.34 26 3.68 26 3 C25.31897217 2.98018066 24.63794434 2.96036133 23.9362793 2.93994141 C20.85296083 2.84473017 17.77032351 2.73503534 14.6875 2.625 C13.0797168 2.57859375 13.0797168 2.57859375 11.43945312 2.53125 C10.41142578 2.49257813 9.38339844 2.45390625 8.32421875 2.4140625 C7.37635498 2.3826416 6.42849121 2.3512207 5.4519043 2.31884766 C3 2 3 2 0 0 Z " fill="#E0A64C" transform="translate(279,280)"/>
<path d="M0 0 C0.495 1.485 0.495 1.485 1 3 C-1.02441574 5.02441574 -5.14497767 4.32458622 -7.9375 4.4375 C-17.34687235 4.87925009 -26.65243468 5.86193945 -36 7 C-32.61873678 3.61873678 -29.77105521 2.75946158 -25.04296875 2.62109375 C-24.09486328 2.58693359 -23.14675781 2.55277344 -22.16992188 2.51757812 C-21.18572266 2.49115234 -20.20152344 2.46472656 -19.1875 2.4375 C-9.01476416 2.9617326 -9.01476416 2.9617326 0 0 Z " fill="#F0AC45" transform="translate(447,108)"/>
<path d="M0 0 C-1.9783589 1.9783589 -3.44499824 2.81176825 -5.9375 4 C-8.47395989 5.21370791 -10.64158448 6.42772299 -13 8 C-15.33199388 8.07905064 -17.66832622 8.08798769 -20 8 C-20 7.34 -20 6.68 -20 6 C-7.69931663 -0.88838269 -7.69931663 -0.88838269 0 0 Z " fill="#281A10" transform="translate(73,238)"/>
<path d="M0 0 C9.54180582 -0.44961389 19.31837253 -0.34801159 27 6 C24.69 5.67 22.38 5.34 20 5 C20 4.34 20 3.68 20 3 C16.85378318 3.13822199 13.70814434 3.28685084 10.5625 3.4375 C9.66466797 3.47681641 8.76683594 3.51613281 7.84179688 3.55664062 C6.98779297 3.59853516 6.13378906 3.64042969 5.25390625 3.68359375 C4.46314697 3.72025146 3.6723877 3.75690918 2.85766602 3.79467773 C0.98598559 3.80563257 0.98598559 3.80563257 0 5 C-1.66617115 5.04063832 -3.33388095 5.042721 -5 5 C-3 3 -3 3 0 1 C0 0.67 0 0.34 0 0 Z " fill="#E7A948" transform="translate(66,8)"/>
<path d="M0 0 C7.19783936 -0.95971191 11.97296029 2.33800119 18 6 C17.34 6.66 16.68 7.32 16 8 C9.97432351 7.68092141 4.99050024 5.18542568 0 2 C0 1.34 0 0.68 0 0 Z " fill="#2E2118" transform="translate(394,262)"/>
<path d="M0 0 C-3.40934385 2.2728959 -6.94820023 3.98662154 -10.625 5.78125 C-13.16445403 7.02756402 -13.16445403 7.02756402 -16 9 C-16.99 8.34 -17.98 7.68 -19 7 C-18 4 -18 4 -16.25 2.83203125 C-10.5278388 0.23917695 -6.2728507 -0.39827624 0 0 Z " fill="#231916" transform="translate(391,9)"/>
<path d="M0 0 C1.65 1.32 3.3 2.64 5 4 C4.125 8.75 4.125 8.75 3 11 C3.25217444 12.88406192 3.57607398 14.75881338 3.9375 16.625 C4.81918308 21.53638898 5.19144082 26.02253875 5 31 C4.67 31 4.34 31 4 31 C1.63000762 20.62569375 0.4048259 10.62318999 0 0 Z " fill="#F4B75A" transform="translate(18,166)"/>
<path d="M0 0 C5.32309066 0.51932592 8.51979426 2.26209649 13 5 C14.32765616 5.67790217 15.65971734 6.34741696 17 7 C10.54107286 7.40368295 5.93891422 6.5915262 0 4 C0 2.68 0 1.36 0 0 Z " fill="#242121" transform="translate(212,371)"/>
<path d="M0 0 C7.30484887 -0.28591961 13.98128341 0.51507015 21.125 2 C22.08148438 2.19078125 23.03796875 2.3815625 24.0234375 2.578125 C26.35081492 3.04360048 28.67607444 3.51763952 31 4 C30.67 4.66 30.34 5.32 30 6 C23.44151546 5.25826663 16.9880122 4.14229492 10.5 2.9375 C9.48679687 2.75123047 8.47359375 2.56496094 7.4296875 2.37304688 C4.95274538 1.91738299 2.47620374 1.4596565 0 1 C0 0.67 0 0.34 0 0 Z " fill="#5C4426" transform="translate(39,112)"/>
<path d="M0 0 C2.24538034 3.84344382 3.1026736 7.9638019 4.125 12.25 C4.30675781 12.99507812 4.48851562 13.74015625 4.67578125 14.5078125 C5.12147499 16.3375026 5.56131959 18.16861575 6 20 C1.79606135 19.23163306 0.47812494 17.45167403 -2 14 C-1.01 14 -0.02 14 1 14 C0.835 13.175 0.67 12.35 0.5 11.5 C-0.05896045 7.58727683 -0.06807187 3.94816827 0 0 Z " fill="#F4AB39" transform="translate(159,145)"/>
<path d="M0 0 C2.31 0 4.62 0 7 0 C7 0.66 7 1.32 7 2 C8.32 2 9.64 2 11 2 C11 2.66 11 3.32 11 4 C15.97906259 4.75427297 15.97906259 4.75427297 21 5 C21 5.99 21 6.98 21 8 C21.99 8.33 22.98 8.66 24 9 C24 9.66 24 10.32 24 11 C18.96944887 9.05148112 14.12987799 6.74020212 9.25390625 4.4375 C6.20755938 3.0916949 3.17553334 1.99624575 0 1 C0 0.67 0 0.34 0 0 Z " fill="#D48E22" transform="translate(99,125)"/>
<path d="M0 0 C3.08464774 0.27871164 6.16733279 0.5752341 9.25 0.875 C10.55904297 0.99294922 10.55904297 0.99294922 11.89453125 1.11328125 C12.73886719 1.19707031 13.58320313 1.28085938 14.453125 1.3671875 C15.22817383 1.44050293 16.00322266 1.51381836 16.80175781 1.58935547 C19.15841885 2.02959357 20.91656877 2.83377654 23 4 C8.04234528 5.48208469 8.04234528 5.48208469 2 4 C0.79296875 1.94921875 0.79296875 1.94921875 0 0 Z " fill="#B78031" transform="translate(243,221)"/>
<path d="M0 0 C7.93285519 -0.36801906 14.5345605 0.22523488 22 3 C20.02 3.99 20.02 3.99 18 5 C18 4.34 18 3.68 18 3 C15.77110504 2.94571027 13.54182529 2.90707662 11.3125 2.875 C10.07113281 2.85179687 8.82976562 2.82859375 7.55078125 2.8046875 C4.15277599 2.99159648 2.05897445 3.62130729 -1 5 C-3.8125 5.125 -3.8125 5.125 -6 5 C-4.04783565 3.04783565 -2.46800047 2.15173355 0 1 C0 0.67 0 0.34 0 0 Z " fill="#F0B75B" transform="translate(389,8)"/>
<path d="M0 0 C2.4375 0.375 2.4375 0.375 5 1 C5.33 1.66 5.66 2.32 6 3 C4.02 3 2.04 3 0 3 C0.33 11.58 0.66 20.16 1 29 C0.34 28.67 -0.32 28.34 -1 28 C-1.22556502 23.89658886 -1.42750038 19.79235012 -1.625 15.6875 C-1.68945312 14.52025391 -1.75390625 13.35300781 -1.8203125 12.15039062 C-1.871875 11.03212891 -1.9234375 9.91386719 -1.9765625 8.76171875 C-2.02893066 7.73006592 -2.08129883 6.69841309 -2.13525391 5.63549805 C-2 3 -2 3 0 0 Z " fill="#E79C2B" transform="translate(242,192)"/>
<path d="M0 0 C1.21236328 0.01353516 1.21236328 0.01353516 2.44921875 0.02734375 C3.37154297 0.04474609 3.37154297 0.04474609 4.3125 0.0625 C1.68638978 1.81324015 -0.86952857 3.22020769 -3.6875 4.625 C-4.55375 5.05941406 -5.42 5.49382813 -6.3125 5.94140625 C-8.6875 7.0625 -8.6875 7.0625 -11.6875 8.0625 C-11.6875 7.0725 -11.6875 6.0825 -11.6875 5.0625 C-11.0275 5.0625 -10.3675 5.0625 -9.6875 5.0625 C-9.419375 4.423125 -9.15125 3.78375 -8.875 3.125 C-6.81823169 -0.44728181 -3.74368831 -0.05425635 0 0 Z " fill="#271609" transform="translate(64.6875,8.9375)"/>
<path d="M0 0 C1.11003253 3.3300976 0.9343162 3.97843441 -0.25 7.125 C-0.50265625 7.82882813 -0.7553125 8.53265625 -1.015625 9.2578125 C-2 11 -2 11 -5 12 C-6.21869929 14.50447516 -6.21869929 14.50447516 -7 17 C-7.66 17 -8.32 17 -9 17 C-7.51481201 12.95698825 -5.57122002 9.38853744 -3.375 5.6875 C-2.74335938 4.61886719 -2.11171875 3.55023438 -1.4609375 2.44921875 C-0.97882813 1.64097656 -0.49671875 0.83273438 0 0 Z " fill="#DA9022" transform="translate(354,42)"/>
<path d="M0 0 C0.66 0.33 1.32 0.66 2 1 C-0.97 7.6 -3.94 14.2 -7 21 C-7.33 21 -7.66 21 -8 21 C-8 19.02 -8 17.04 -8 15 C-7.34 15 -6.68 15 -6 15 C-6 13.68 -6 12.36 -6 11 C-5.34 11 -4.68 11 -4 11 C-3.34 8.36 -2.68 5.72 -2 3 C-1.34 3 -0.68 3 0 3 C0 2.01 0 1.02 0 0 Z " fill="#F4B250" transform="translate(280,333)"/>
<path d="M0 0 C0.66 0.33 1.32 0.66 2 1 C1.34724268 3.98114942 0.36065349 6.55453618 -0.9375 9.3125 C-2.69067519 13.16311024 -3.95432682 16.90444672 -5 21 C-6.37432457 17.18243176 -5.67975039 13.92744671 -5 10 C-4.34 10 -3.68 10 -3 10 C-3.33 8.35 -3.66 6.7 -4 5 C-3.01 5 -2.02 5 -1 5 C-0.67 3.35 -0.34 1.7 0 0 Z " fill="#F7B248" transform="translate(389,262)"/>
<path d="M0 0 C0.33 0 0.66 0 1 0 C0.67 5.61 0.34 11.22 0 17 C-0.99 17 -1.98 17 -3 17 C-2.88597936 14.72858891 -2.75841495 12.45785448 -2.625 10.1875 C-2.55539062 8.92292969 -2.48578125 7.65835938 -2.4140625 6.35546875 C-2 3 -2 3 0 0 Z " fill="#D19B4B" transform="translate(442,199)"/>
<path d="M0 0 C0.33 0 0.66 0 1 0 C1 1.98 1 3.96 1 6 C0.34 6 -0.32 6 -1 6 C-0.9071875 7.5159375 -0.9071875 7.5159375 -0.8125 9.0625 C-1.02642827 13.55499372 -2.04613532 16.01085961 -4 20 C-4.66 20 -5.32 20 -6 20 C-4.85210257 12.90116066 -2.88549626 6.58341381 0 0 Z " fill="#D38C20" transform="translate(329,95)"/>
<path d="M0 0 C4.57090647 2.28545323 6.36565229 3.49965599 9 8 C11.46278801 10.46278801 13.70676982 10.99771255 17 12 C17 12.66 17 13.32 17 14 C8.61065027 12.02603536 4.68985123 8.10177472 0 1 C0 0.67 0 0.34 0 0 Z " fill="#DA9224" transform="translate(315,336)"/>
<path d="M0 0 C-3.47458482 3.1864911 -6.50942864 3.63306278 -11.125 4.1875 C-12.11608765 4.30810791 -12.11608765 4.30810791 -13.12719727 4.43115234 C-18.43251802 5.03574363 -23.66862515 5.22579941 -29 5 C-29 4.67 -29 4.34 -29 4 C-28.01604248 3.87153687 -28.01604248 3.87153687 -27.01220703 3.74047852 C-24.049303 3.35153499 -21.08715747 2.95708727 -18.125 2.5625 C-17.09246094 2.42779297 -16.05992187 2.29308594 -14.99609375 2.15429688 C-14.00996094 2.02216797 -13.02382812 1.89003906 -12.0078125 1.75390625 C-11.09660645 1.63345947 -10.18540039 1.5130127 -9.24658203 1.38891602 C-1.06203396 -0.02794826 -1.06203396 -0.02794826 0 0 Z " fill="#EFB661" transform="translate(232,221)"/>
<path d="M0 0 C0.66 0 1.32 0 2 0 C2 0.66 2 1.32 2 2 C2.66 1.67 3.32 1.34 4 1 C8.93231984 1.12597281 13.53025787 1.83722155 18 4 C16.02 4.99 16.02 4.99 14 6 C13.01 5.34 12.02 4.68 11 4 C7.29455413 3.80149397 4.52994613 3.82335129 1 5 C0.67 3.35 0.34 1.7 0 0 Z " fill="#E29622" transform="translate(390,259)"/>
<path d="M0 0 C1.53760842 3.07521683 0.36599236 5.34675118 -0.4375 8.625 C-0.72496094 9.81351563 -1.01242187 11.00203125 -1.30859375 12.2265625 C-1.65083984 13.59941406 -1.65083984 13.59941406 -2 15 C-2.33 15 -2.66 15 -3 15 C-2.67 12.36 -2.34 9.72 -2 7 C-4.51083114 8.25541557 -4.87125446 9.50063488 -6 12 C-6.33 11.34 -6.66 10.68 -7 10 C-6.07421875 7.87109375 -6.07421875 7.87109375 -4.6875 5.4375 C-4.23761719 4.63183594 -3.78773438 3.82617188 -3.32421875 2.99609375 C-2 1 -2 1 0 0 Z " fill="#F1B55A" transform="translate(455,166)"/>
<path d="M0 0 C0.66 0.99 1.32 1.98 2 3 C1.0479279 4.00596297 0.08812654 5.00461563 -0.875 6 C-1.40867187 6.556875 -1.94234375 7.11375 -2.4921875 7.6875 C-4 9 -4 9 -6 9 C-6.33 9.99 -6.66 10.98 -7 12 C-7.99 11.67 -8.98 11.34 -10 11 C-6.7 7.37 -3.4 3.74 0 0 Z " fill="#DE9324" transform="translate(372,20)"/>
<path d="M0 0 C-1.269553 0.64834654 -2.54069706 1.29357815 -3.8125 1.9375 C-4.52019531 2.29714844 -5.22789062 2.65679687 -5.95703125 3.02734375 C-9.70400236 4.81127455 -12.58433566 5.11077252 -16.6875 5.0625 C-17.68136719 5.05347656 -18.67523438 5.04445313 -19.69921875 5.03515625 C-20.83810547 5.01775391 -20.83810547 5.01775391 -22 5 C-22 4.67 -22 4.34 -22 4 C-21.3709375 3.89042969 -20.741875 3.78085937 -20.09375 3.66796875 C-15.75997607 2.86517629 -11.70980399 1.99266466 -7.625 0.3125 C-4.01729386 -0.99373843 -3.38147259 -1.10977845 0 0 Z " fill="#F2AE47" transform="translate(354,345)"/>
<path d="M0 0 C-5.77874846 3.25711277 -10.37822074 4.69343615 -17 5 C-17.33 4.34 -17.66 3.68 -18 3 C-15.59454362 1.79727181 -14.05003047 1.89928528 -11.375 1.9375 C-10.14910156 1.95103516 -10.14910156 1.95103516 -8.8984375 1.96484375 C-7.95871094 1.98224609 -7.95871094 1.98224609 -7 2 C-7 1.34 -7 0.68 -7 0 C-3.98968256 -0.93423645 -3.13349732 -1.04449911 0 0 Z " fill="#F2B24F" transform="translate(71,265)"/>
<path d="M0 0 C0.33 0.99 0.66 1.98 1 3 C-0.75 5 -0.75 5 -3 7 C-4.32 7 -5.64 7 -7 7 C-7.33 8.32 -7.66 9.64 -8 11 C-8.99 10.67 -9.98 10.34 -11 10 C-7.50640535 6.40365256 -3.88901869 3.16548033 0 0 Z " fill="#DE9422" transform="translate(163,285)"/>
<path d="M0 0 C2.0625 0.4375 2.0625 0.4375 4 1 C2.71034824 2.37562854 1.37310707 3.70766393 0 5 C-0.66 5 -1.32 5 -2 5 C-2 5.66 -2 6.32 -2 7 C-3.98 7.99 -3.98 7.99 -6 9 C-5.67 6.36 -5.34 3.72 -5 1 C-3.68 1 -2.36 1 -1 1 C-0.67 0.67 -0.34 0.34 0 0 Z " fill="#F1B554" transform="translate(315,157)"/>
<path d="M0 0 C2.64752004 2.57784846 4.94432065 4.91648098 7 8 C7 8.99 7 9.98 7 11 C4.03 11 1.06 11 -2 11 C-2 10.67 -2 10.34 -2 10 C-0.02 10 1.96 10 4 10 C4 8.68 4 7.36 4 6 C2.35 5.67 0.7 5.34 -1 5 C-0.34 4.67 0.32 4.34 1 4 C0.67 2.68 0.34 1.36 0 0 Z " fill="#F4B555" transform="translate(262,215)"/>
<path d="M0 0 C0 0.99 0 1.98 0 3 C0.66 3 1.32 3 2 3 C2.66 4.65 3.32 6.3 4 8 C-0.10958767 6.54955729 -3.43258745 4.48889248 -7 2 C-4 0 -4 0 0 0 Z " fill="#24201C" transform="translate(129,139)"/>
<path d="M0 0 C3.21272249 1.43993643 5.6206664 3.23018372 8.25 5.5625 C8.95640625 6.18253906 9.6628125 6.80257813 10.390625 7.44140625 C10.92171875 7.95574219 11.4528125 8.47007813 12 9 C12 9.33 12 9.66 12 10 C10.35 10 8.7 10 7 10 C7 9.01 7 8.02 7 7 C6.01 7 5.02 7 4 7 C4 6.01 4 5.02 4 4 C2.68 3.67 1.36 3.34 0 3 C0 2.01 0 1.02 0 0 Z " fill="#F5AF44" transform="translate(418,16)"/>
<path d="M0 0 C1.63129887 4.06285757 0.29968777 7.20102184 -0.9375 11.25 C-1.31777344 12.51328125 -1.69804687 13.7765625 -2.08984375 15.078125 C-2.39019531 16.04234375 -2.69054687 17.0065625 -3 18 C-3.33 18 -3.66 18 -4 18 C-3.40546697 5.33029613 -3.40546697 5.33029613 0 0 Z " fill="#F3B14E" transform="translate(379,296)"/>
<path d="M0 0 C0.97812873 3.05628064 1.00835683 4.85277447 0.00390625 7.890625 C-0.33930664 8.95410156 -0.33930664 8.95410156 -0.68945312 10.0390625 C-0.93630859 10.76867187 -1.18316406 11.49828125 -1.4375 12.25 C-1.68048828 12.99507812 -1.92347656 13.74015625 -2.17382812 14.5078125 C-2.77332981 16.34158235 -3.38544487 18.17122004 -4 20 C-4.33 20 -4.66 20 -5 20 C-3.36956522 5.05434783 -3.36956522 5.05434783 0 0 Z " fill="#F4B556" transform="translate(444,230)"/>
<path d="M0 0 C1.99170912 2.98756368 3.02907979 5.55424386 4.1875 8.9375 C4.55230469 9.97777344 4.91710937 11.01804687 5.29296875 12.08984375 C5.98896034 14.95456052 6.02529944 16.28981357 5 19 C3.5393715 16.35261084 3 15.10551666 3 12 C2.34 12 1.68 12 1 12 C0.67 8.04 0.34 4.08 0 0 Z " fill="#F5B453" transform="translate(145,97)"/>
<path d="M0 0 C1.43861294 0.08746284 2.87597508 0.19565348 4.3125 0.3125 C5.11300781 0.37050781 5.91351563 0.42851562 6.73828125 0.48828125 C9.36272334 1.08206694 10.30820672 1.95780294 12 4 C3.625 4 3.625 4 0 2 C0 1.34 0 0.68 0 0 Z " fill="#26170D" transform="translate(293,320)"/>
<path d="M0 0 C0.66 0.33 1.32 0.66 2 1 C1.25 5.75 1.25 5.75 -1 8 C-1.99 8 -2.98 8 -4 8 C-4.33 7.01 -4.66 6.02 -5 5 C-3.35 3.35 -1.7 1.7 0 0 Z " fill="#090301" transform="translate(366,20)"/>
<path d="M0 0 C0.99 0 1.98 0 3 0 C1.36041242 5.23272633 -0.38952035 10.15196636 -3 15 C-3.33 15 -3.66 15 -4 15 C-4 13.35 -4 11.7 -4 10 C-3.34 10 -2.68 10 -2 10 C-1.855625 9.278125 -1.71125 8.55625 -1.5625 7.8125 C-1.04166667 5.20833333 -0.52083333 2.60416667 0 0 Z " fill="#F5B24F" transform="translate(372,315)"/>
<path d="M0 0 C-2.40921705 2.40921705 -4.94334509 3.53812156 -8 5 C-8 4.34 -8 3.68 -8 3 C-9.32 3.33 -10.64 3.66 -12 4 C-12.33 3.34 -12.66 2.68 -13 2 C-8.50343896 -0.24828052 -4.92127034 -0.16682272 0 0 Z " fill="#2B2018" transform="translate(385,240)"/>
<path d="M0 0 C2.66726716 2.66726716 3.40327218 5.33509408 4.6875 8.875 C5.14511719 10.10992187 5.60273438 11.34484375 6.07421875 12.6171875 C6.93330009 15.75627797 7.21775181 17.06263502 6 20 C5.60167969 18.89591797 5.60167969 18.89591797 5.1953125 17.76953125 C4.84210937 16.79371094 4.48890625 15.81789062 4.125 14.8125 C3.60292969 13.36810547 3.60292969 13.36810547 3.0703125 11.89453125 C2.38452348 10.03989744 1.65363092 8.20096236 0.8671875 6.38671875 C0 4 0 4 0 0 Z " fill="#F4B75E" transform="translate(23,172)"/>
<path d="M0 0 C1.89515194 6.58996015 -0.2013755 12.03771302 -3 18 C-4.63129887 13.93714243 -3.29968777 10.79897816 -2.0625 6.75 C-1.68222656 5.48671875 -1.30195313 4.2234375 -0.91015625 2.921875 C-0.60980469 1.95765625 -0.30945313 0.9934375 0 0 Z " fill="#CD8925" transform="translate(322,116)"/>
<path d="M0 0 C0.99 0.33 1.98 0.66 3 1 C2.01 2.485 2.01 2.485 1 4 C0.34 4 -0.32 4 -1 4 C-1 4.66 -1 5.32 -1 6 C-1.66 6 -2.32 6 -3 6 C-3 6.66 -3 7.32 -3 8 C-3.66 8 -4.32 8 -5 8 C-5.33 7.01 -5.66 6.02 -6 5 C-1.60546875 0.99609375 -1.60546875 0.99609375 0 0 Z " fill="#F6AD43" transform="translate(364,332)"/>
<path d="M0 0 C1.9756562 2.96348429 2.26376859 3.68020373 2.4140625 7.01171875 C2.45273437 7.76904297 2.49140625 8.52636719 2.53125 9.30664062 C2.57765625 10.48516602 2.57765625 10.48516602 2.625 11.6875 C2.66367187 12.48478516 2.70234375 13.28207031 2.7421875 14.10351562 C2.83632494 16.06863475 2.91924632 18.0342854 3 20 C2.67 20 2.34 20 2 20 C1.46706163 17.60629375 0.9484183 15.21091562 0.4375 12.8125 C0.28603516 12.13896484 0.13457031 11.46542969 -0.02148438 10.77148438 C-0.8403763 6.86746475 -1.1282845 3.84812264 0 0 Z " fill="#E3A346" transform="translate(20,177)"/>
<path d="M0 0 C1.43836751 0.11458693 2.87570966 0.24209116 4.3125 0.375 C5.51326172 0.47941406 5.51326172 0.47941406 6.73828125 0.5859375 C9 1 9 1 12 3 C12 3.66 12 4.32 12 5 C6.06 3.515 6.06 3.515 0 2 C0 1.34 0 0.68 0 0 Z " fill="#3E2B20" transform="translate(69,117)"/>
<path d="M0 0 C1.8871875 0.0309375 1.8871875 0.0309375 3.8125 0.0625 C1.38494264 2.49005736 -1.07939508 3.63795191 -4.1875 5.0625 C-4.8475 5.0625 -5.5075 5.0625 -6.1875 5.0625 C-6.5175 3.7425 -6.8475 2.4225 -7.1875 1.0625 C-4.43671116 0.14557039 -2.82801087 -0.04636083 0 0 Z " fill="#352418" transform="translate(278.1875,280.9375)"/>
<path d="M0 0 C3.57011026 3.732388 4.10913442 8.0949989 5 13 C4.34 13 3.68 13 3 13 C3 11.35 3 9.7 3 8 C1.68 8.33 0.36 8.66 -1 9 C-0.67 6.03 -0.34 3.06 0 0 Z " fill="#F5B049" transform="translate(112,264)"/>
<path d="M0 0 C3.63 1.98 7.26 3.96 11 6 C11 6.33 11 6.66 11 7 C8.69 7 6.38 7 4 7 C3.34 5.35 2.68 3.7 2 2 C1.34 2 0.68 2 0 2 C0 1.34 0 0.68 0 0 Z " fill="#1B0A01" transform="translate(129,140)"/>
<path d="M0 0 C5.82271337 -0.59720137 9.9209404 1.471757 15 4 C14.67 4.66 14.34 5.32 14 6 C13.34 6 12.68 6 12 6 C12 5.34 12 4.68 12 4 C11.30132812 3.96261719 10.60265625 3.92523438 9.8828125 3.88671875 C8.97273438 3.82097656 8.06265625 3.75523437 7.125 3.6875 C6.22007813 3.62949219 5.31515625 3.57148438 4.3828125 3.51171875 C2 3 2 3 0 0 Z " fill="#251408" transform="translate(103,129)"/>
<path d="M0 0 C0.66 0.33 1.32 0.66 2 1 C1.67 1.66 1.34 2.32 1 3 C0.34 3 -0.32 3 -1 3 C-1.185625 4.2065625 -1.185625 4.2065625 -1.375 5.4375 C-1.58125 6.283125 -1.7875 7.12875 -2 8 C-2.99 8.495 -2.99 8.495 -4 9 C-4.66 7.35 -5.32 5.7 -6 4 C-4.02 2.68 -2.04 1.36 0 0 Z " fill="#211E1D" transform="translate(54,11)"/>
<path d="M0 0 C4 2 8 4 12 6 C9.03 6 6.06 6 3 6 C3 5.34 3 4.68 3 4 C2.01 4 1.02 4 0 4 C0 2.68 0 1.36 0 0 Z " fill="#2E180A" transform="translate(217,372)"/>
<path d="M0 0 C4.51617599 -0.07654536 8.59085217 -0.10228696 13 1 C13 1.66 13 2.32 13 3 C13.99 3.33 14.98 3.66 16 4 C12.85681547 5.57159226 10.07066611 4.04018399 6.875 3.0625 C6.21628906 2.86720703 5.55757813 2.67191406 4.87890625 2.47070312 C3.25066448 1.98695014 1.62506818 1.49430925 0 1 C0 0.67 0 0.34 0 0 Z " fill="#D28B20" transform="translate(70,116)"/>
<path d="M0 0 C1.05543251 3.18769143 0.97424908 4.94786631 -0.25 8.0625 C-0.62898438 9.06990234 -0.62898438 9.06990234 -1.015625 10.09765625 C-2.0785986 12.15189491 -3.29068058 13.45873165 -5 15 C-4.43174347 9.45949887 -2.37113483 4.96284034 0 0 Z " fill="#D18B20" transform="translate(30,45)"/>
<path d="M0 0 C1.32 0.66 2.64 1.32 4 2 C2.73760288 2.86658615 1.46472499 3.71792059 0.1875 4.5625 C-0.87404297 5.27599609 -0.87404297 5.27599609 -1.95703125 6.00390625 C-4 7 -4 7 -7 6 C-6.67 5.34 -6.34 4.68 -6 4 C-4.35 4 -2.7 4 -1 4 C-0.67 2.68 -0.34 1.36 0 0 Z " fill="#F5AF46" transform="translate(154,341)"/>
<path d="M0 0 C1.46098063 5.05809202 0.92367167 9.26349726 -1.5625 13.9375 C-2.036875 14.618125 -2.51125 15.29875 -3 16 C-4.57159226 12.85681547 -3.04018399 10.07066611 -2.0625 6.875 C-1.86720703 6.21628906 -1.67191406 5.55757813 -1.47070312 4.87890625 C-0.98695014 3.25066448 -0.49430925 1.62506818 0 0 Z " fill="#D08C23" transform="translate(358,274)"/>
<path d="M0 0 C0 3.26795703 -0.57850516 5.0821948 -2 8 C-2.99 8.66 -3.98 9.32 -5 10 C-5.33 10.99 -5.66 11.98 -6 13 C-6.66 12.67 -7.32 12.34 -8 12 C-5.6163187 7.65829477 -3.21880117 3.7935871 0 0 Z " fill="#D78E25" transform="translate(370,251)"/>
<path d="M0 0 C0.66 0.33 1.32 0.66 2 1 C0.92807816 2.3218362 -0.15802695 3.63217927 -1.25 4.9375 C-1.85328125 5.66839844 -2.4565625 6.39929688 -3.078125 7.15234375 C-5.10741134 9.10326334 -6.254407 9.61731779 -9 10 C-8.34 8.68 -7.68 7.36 -7 6 C-6.34 6 -5.68 6 -5 6 C-5 5.34 -5 4.68 -5 4 C-3.37373596 2.61767557 -1.7074998 1.28062485 0 0 Z " fill="#D48D20" transform="translate(53,17)"/>
<path d="M0 0 C2.97 0.99 5.94 1.98 9 3 C9 3.66 9 4.32 9 5 C10.32 5.33 11.64 5.66 13 6 C11.296875 6.6796875 11.296875 6.6796875 9 7 C6.640625 5.8203125 6.640625 5.8203125 4.25 4.125 C3.45078125 3.57070313 2.6515625 3.01640625 1.828125 2.4453125 C1.22484375 1.96835937 0.6215625 1.49140625 0 1 C0 0.67 0 0.34 0 0 Z " fill="#D98F23" transform="translate(42,262)"/>
<path d="M0 0 C0.33 0 0.66 0 1 0 C1.67081836 6.43985624 -0.24569762 9.83783423 -4 15 C-5 13 -5 13 -4.00390625 9.9609375 C-3.52824219 8.77757813 -3.05257813 7.59421875 -2.5625 6.375 C-2.08941406 5.18648438 -1.61632812 3.99796875 -1.12890625 2.7734375 C-0.75636719 1.85820313 -0.38382812 0.94296875 0 0 Z " fill="#D18C22" transform="translate(335,78)"/>
<path d="M0 0 C3.96 1.32 7.92 2.64 12 4 C12 4.33 12 4.66 12 5 C10.5629191 5.05422947 9.12524538 5.09289723 7.6875 5.125 C6.88699219 5.14820313 6.08648437 5.17140625 5.26171875 5.1953125 C3 5 3 5 0 3 C0 2.01 0 1.02 0 0 Z " fill="#372615" transform="translate(120,345)"/>
<path d="M0 0 C2.95409701 1.37154504 5.44008376 2.98863724 8 5 C5.39417629 5.93065133 4.35801776 6.14917407 1.75 5.0625 C1.1725 4.711875 0.595 4.36125 0 4 C0 2.68 0 1.36 0 0 Z " fill="#36251A" transform="translate(43,264)"/>
<path d="M0 0 C2.97 0 5.94 0 9 0 C6.49751135 1.66832577 4.58850813 2.62381674 1.8125 3.625 C0.73935547 4.01558594 0.73935547 4.01558594 -0.35546875 4.4140625 C-0.89816406 4.60742188 -1.44085938 4.80078125 -2 5 C-1.34 3.35 -0.68 1.7 0 0 Z " fill="#2B180D" transform="translate(382,9)"/>
<path d="M0 0 C1.4540625 0.0309375 1.4540625 0.0309375 2.9375 0.0625 C0.10319547 3.3167015 -1.74857774 4.5831753 -6.0625 5.0625 C-3.64893617 0.07446809 -3.64893617 0.07446809 0 0 Z " fill="#220E00" transform="translate(241.0625,320.9375)"/>
<path d="M0 0 C0.33 0.66 0.66 1.32 1 2 C1.61875 2.28875 2.2375 2.5775 2.875 2.875 C5.36796335 4.19480413 6.45147781 5.67721672 8 8 C6.35 7.67 4.7 7.34 3 7 C3 6.34 3 5.68 3 5 C2.01 4.67 1.02 4.34 0 4 C0 2.68 0 1.36 0 0 Z " fill="#F5B54F" transform="translate(204,288)"/>
<path d="M0 0 C0 1.32 0 2.64 0 4 C-2.5 5.75 -2.5 5.75 -5 7 C-5 5.02 -5 3.04 -5 1 C-3 0 -3 0 0 0 Z " fill="#23170C" transform="translate(272,283)"/>
<path d="M0 0 C2.31 0.33 4.62 0.66 7 1 C5.25 5.875 5.25 5.875 3 7 C2.01 4.69 1.02 2.38 0 0 Z " fill="#EB971D" transform="translate(83,265)"/>
<path d="M0 0 C1.90318884 2.85478326 2.4619099 4.41941308 3.125 7.6875 C3.29257813 8.49574219 3.46015625 9.30398437 3.6328125 10.13671875 C3.75398437 10.75160156 3.87515625 11.36648437 4 12 C2.125 11.6875 2.125 11.6875 0 11 C-0.66 10.01 -1.32 9.02 -2 8 C-1.34 8 -0.68 8 0 8 C0 5.36 0 2.72 0 0 Z " fill="#F0BD6A" transform="translate(161,153)"/>
<path d="M0 0 C2.55803184 3.83704776 4.34505724 7.75712791 3.625 12.4375 C3.41875 12.953125 3.2125 13.46875 3 14 C0.31907309 11.31907309 0.61329743 9.60832637 0.375 5.875 C0.30023438 4.77929688 0.22546875 3.68359375 0.1484375 2.5546875 C0.09945312 1.71164063 0.05046875 0.86859375 0 0 Z " fill="#F3AF4B" transform="translate(155,131)"/>
<path d="M0 0 C2.64 0.33 5.28 0.66 8 1 C8.33 2.65 8.66 4.3 9 6 C5.06326356 4.68775452 2.77280706 3.08089673 0 0 Z " fill="#E09320" transform="translate(126,137)"/>
<path d="M0 0 C2.55803184 3.83704776 4.34505724 7.75712791 3.625 12.4375 C3.41875 12.953125 3.2125 13.46875 3 14 C0.31907309 11.31907309 0.61329743 9.60832637 0.375 5.875 C0.30023438 4.77929688 0.22546875 3.68359375 0.1484375 2.5546875 C0.09945312 1.71164063 0.05046875 0.86859375 0 0 Z " fill="#F4B552" transform="translate(151,116)"/>
<path d="M0 0 C2.45823172 3.68734758 3.01242616 6.69699971 4 11 C1.36 11 -1.28 11 -4 11 C-4 10.67 -4 10.34 -4 10 C-2.35 10 -0.7 10 1 10 C0.67 6.7 0.34 3.4 0 0 Z " fill="#553E21" transform="translate(23,101)"/>
<path d="M0 0 C0 2 0 2 -1.375 3.5 C-1.91125 3.995 -2.4475 4.49 -3 5 C-3.66 5.66 -4.32 6.32 -5 7 C-7.625 7.125 -7.625 7.125 -10 7 C-3.18421053 0 -3.18421053 0 0 0 Z " fill="#D89020" transform="translate(383,13)"/>
<path d="M0 0 C1.65 0 3.3 0 5 0 C5.33 0.66 5.66 1.32 6 2 C-1.28571429 5.42857143 -1.28571429 5.42857143 -6 5 C-4.04783565 3.04783565 -2.46800047 2.15173355 0 1 C0 0.67 0 0.34 0 0 Z " fill="#CC9540" transform="translate(389,8)"/>
<path d="M0 0 C2.64 0 5.28 0 8 0 C8 0.66 8 1.32 8 2 C4.5647952 4.29013653 3.014669 4.17842973 -1 4 C-0.01 3.34 0.98 2.68 2 2 C1.34 1.34 0.68 0.68 0 0 Z " fill="#BB8B43" transform="translate(381,239)"/>
<path d="M0 0 C4.43090471 1.20842856 6.98112756 2.51668565 10 6 C7.03 5.505 7.03 5.505 4 5 C4 4.34 4 3.68 4 3 C2.68 2.67 1.36 2.34 0 2 C0 1.34 0 0.68 0 0 Z " fill="#F4B351" transform="translate(88,240)"/>
<path d="M0 0 C-3.0469629 1.69433918 -5.82821466 2.49467112 -9.25 3.125 C-10.58804687 3.37636719 -10.58804687 3.37636719 -11.953125 3.6328125 C-12.62859375 3.75398438 -13.3040625 3.87515625 -14 4 C-9.57391359 -0.5688634 -5.97980322 -0.46900417 0 0 Z " fill="#F4B656" transform="translate(401,117)"/>
<path d="M0 0 C2.40034102 3.60051153 4.32187705 6.96144535 3.625 11.375 C3.41875 11.91125 3.2125 12.4475 3 13 C0.41073669 10.41073669 0.62601957 8.97294721 0.375 5.375 C0.30023438 4.37210938 0.22546875 3.36921875 0.1484375 2.3359375 C0.09945313 1.56507812 0.05046875 0.79421875 0 0 Z " fill="#F4B653" transform="translate(447,54)"/>
<path d="M0 0 C3.48331435 3.01887244 4.79157144 5.56909529 6 10 C5.34 10 4.68 10 4 10 C1.04696841 6.92884715 0.47348414 4.1666604 0 0 Z " fill="#F3B555" transform="translate(215,301)"/>
<path d="M0 0 C0.33 0.66 0.66 1.32 1 2 C0.67 2.99 0.34 3.98 0 5 C-0.66 5 -1.32 5 -2 5 C-2 5.66 -2 6.32 -2 7 C-3.5 8.625 -3.5 8.625 -5 10 C-5.66 9.67 -6.32 9.34 -7 9 C-4.69 6.03 -2.38 3.06 0 0 Z " fill="#D28E23" transform="translate(266,290)"/>
<path d="M0 0 C2.2344598 4.03292745 2.54496743 7.44967434 3 12 C2.34 12 1.68 12 1 12 C0.03929566 9.11788698 -0.10581883 7.30149956 -0.0625 4.3125 C-0.05347656 3.50425781 -0.04445313 2.69601562 -0.03515625 1.86328125 C-0.02355469 1.24839844 -0.01195313 0.63351562 0 0 Z " fill="#F4B455" transform="translate(117,278)"/>
<path d="M0 0 C-0.33 0.99 -0.66 1.98 -1 3 C-3.64 3 -6.28 3 -9 3 C-7.14340032 -0.71319936 -3.69365381 -0.09982848 0 0 Z " fill="#E4971F" transform="translate(285,282)"/>
<path d="M0 0 C1.98 0 3.96 0 6 0 C3.64722731 2.72426311 1.37503669 3.8141763 -2 5 C-2 4.01 -2 3.02 -2 2 C-1.34 2 -0.68 2 0 2 C0 1.34 0 0.68 0 0 Z " fill="#F7AD40" transform="translate(336,141)"/>
<path d="M0 0 C0.33 0.99 0.66 1.98 1 3 C0 4 0 4 -2.06640625 4.09765625 C-2.89011719 4.08605469 -3.71382813 4.07445313 -4.5625 4.0625 C-5.38878906 4.05347656 -6.21507812 4.04445313 -7.06640625 4.03515625 C-7.70449219 4.02355469 -8.34257812 4.01195313 -9 4 C-8.67 3.34 -8.34 2.68 -8 2 C-5.67284 1.62599214 -3.33882138 1.29235267 -1 1 C-0.67 0.67 -0.34 0.34 0 0 Z " fill="#F6B14F" transform="translate(447,108)"/>
<path d="M0 0 C1.21065165 3.63195496 0.62784815 5.06531629 -0.4375 8.6875 C-0.86869141 10.17830078 -0.86869141 10.17830078 -1.30859375 11.69921875 C-1.53675781 12.45847656 -1.76492188 13.21773437 -2 14 C-2.33 14 -2.66 14 -3 14 C-3.34615998 8.34605369 -2.43425238 4.96993194 0 0 Z " fill="#F4B252" transform="translate(451,94)"/>
<path d="M0 0 C0.66 0 1.32 0 2 0 C3.4606285 2.64738916 4 3.89448334 4 7 C4.66 7 5.32 7 6 7 C5.67 8.32 5.34 9.64 5 11 C2.77174356 8.77174356 2.30760631 7.34238372 1.375 4.375 C1.11460938 3.55773437 0.85421875 2.74046875 0.5859375 1.8984375 C0.39257812 1.27195313 0.19921875 0.64546875 0 0 Z " fill="#E19426" transform="translate(32,243)"/>
<path d="M0 0 C0.33 0.66 0.66 1.32 1 2 C0.06553465 4.03144641 -0.93224776 6.03533587 -2 8 C-1.34 8.33 -0.68 8.66 0 9 C-1.65 9 -3.3 9 -5 9 C-3.7508258 5.54074837 -2.32472205 2.85306797 0 0 Z " fill="#D58D28" transform="translate(210,216)"/>
<path d="M0 0 C2.45823172 3.68734758 3.01242616 6.69699971 4 11 C2 10 2 10 0 8 C-0.36933645 5.24627091 -0.18336678 2.79634339 0 0 Z " fill="#F5B350" transform="translate(30,192)"/>
<path d="M0 0 C0.33 0 0.66 0 1 0 C1 2.97 1 5.94 1 9 C0.01 9.33 -0.98 9.66 -2 10 C-1.54177532 6.53058454 -1.10868317 3.32604951 0 0 Z " fill="#D98E1E" transform="translate(317,134)"/>
<path d="M0 0 C0.66 0.33 1.32 0.66 2 1 C2 1.99 2 2.98 2 4 C2.99 4.33 3.98 4.66 5 5 C5 5.66 5 6.32 5 7 C2.5625 6.25 2.5625 6.25 0 5 C-0.875 2.9375 -0.875 2.9375 -1 1 C-0.67 0.67 -0.34 0.34 0 0 Z " fill="#E8961C" transform="translate(118,129)"/>
<path d="M0 0 C3.0625 0.1875 3.0625 0.1875 5.0625 2.1875 C2.8125 3.375 2.8125 3.375 0.0625 4.1875 C-2.25 2.8125 -2.25 2.8125 -3.9375 1.1875 C-2.9375 0.1875 -2.9375 0.1875 0 0 Z " fill="#392B22" transform="translate(101.9375,126.8125)"/>
<path d="M0 0 C2.15377564 2.62198774 3.40072174 4.64404172 4 8 C2.68 8 1.36 8 0 8 C0 5.36 0 2.72 0 0 Z " fill="#F7AF48" transform="translate(131,63)"/>
<path d="M0 0 C0.66 0 1.32 0 2 0 C0.8141763 3.37503669 -0.27573689 5.64722731 -3 8 C-3 6.35 -3 4.7 -3 3 C-2.01 2.67 -1.02 2.34 0 2 C0 1.34 0 0.68 0 0 Z " fill="#F6B351" transform="translate(164,330)"/>
<path d="M0 0 C2.4375 0.375 2.4375 0.375 5 1 C5.33 1.66 5.66 2.32 6 3 C3.36 3.33 0.72 3.66 -2 4 C-1.34 2.68 -0.68 1.36 0 0 Z " fill="#EFAE4A" transform="translate(242,192)"/>
<path d="M0 0 C-5.75 5 -5.75 5 -8 5 C-8 4.34 -8 3.68 -8 3 C-7.34 3 -6.68 3 -6 3 C-6 2.01 -6 1.02 -6 0 C-3 -1 -3 -1 0 0 Z " fill="#F7B152" transform="translate(327,152)"/>
<path d="M0 0 C2.66666667 0.66666667 5.33333333 1.33333333 8 2 C8 2.99 8 3.98 8 5 C2.25 3.125 2.25 3.125 0 2 C0 1.34 0 0.68 0 0 Z " fill="#221F20" transform="translate(107,131)"/>
<path d="M0 0 C2.5 2.3125 2.5 2.3125 5 5 C5 5.99 5 6.98 5 8 C3.68 7.67 2.36 7.34 1 7 C1.33 6.01 1.66 5.02 2 4 C1.34 4 0.68 4 0 4 C0 2.68 0 1.36 0 0 Z " fill="#F6B147" transform="translate(430,26)"/>
<path d="M0 0 C0.66 0.99 1.32 1.98 2 3 C-0.97 5.475 -0.97 5.475 -4 8 C-2.25 2.25 -2.25 2.25 0 0 Z " fill="#EB981C" transform="translate(372,20)"/>
<path d="M0 0 C1.65 0 3.3 0 5 0 C2.14693203 2.32472205 -0.54074837 3.7508258 -4 5 C-4 4.01 -4 3.02 -4 2 C-2.68 2 -1.36 2 0 2 C0 1.34 0 0.68 0 0 Z " fill="#F5B04D" transform="translate(348,135)"/>
<path d="M0 0 C2.50298434 2.93828597 3.46930939 5.17902761 4 9 C3.01 9 2.02 9 1 9 C0.67 6.03 0.34 3.06 0 0 Z " fill="#F5B14A" transform="translate(443,45)"/>
<path d="M0 0 C2.5 2.3125 2.5 2.3125 5 5 C5 5.99 5 6.98 5 8 C3.0625 7.375 3.0625 7.375 1 6 C0.25 2.875 0.25 2.875 0 0 Z " fill="#F5B34E" transform="translate(110,30)"/>
<path d="M0 0 C2 3.875 2 3.875 2 5 C0.02 5 -1.96 5 -4 5 C-3 2 -3 2 0 0 Z " fill="#48341D" transform="translate(419,241)"/>
<path d="M0 0 C2.875 -0.125 2.875 -0.125 6 0 C6.66 0.66 7.32 1.32 8 2 C4.71303767 2.79953138 3.28976808 3.09658936 0 2 C0 1.34 0 0.68 0 0 Z " fill="#241A17" transform="translate(93,125)"/>
<path d="M0 0 C2.79872437 2.52788007 4.45773019 4.20411134 5 8 C2 7 2 7 0 4 C0 2.68 0 1.36 0 0 Z " fill="#F5B04B" transform="translate(436,34)"/>
<path d="M0 0 C0.66 0.33 1.32 0.66 2 1 C1.67 2.65 1.34 4.3 1 6 C-0.32 5.34 -1.64 4.68 -3 4 C-2.67 3.01 -2.34 2.02 -2 1 C-1.34 0.67 -0.68 0.34 0 0 Z " fill="#171613" transform="translate(375,12)"/>
</svg>
